<svg xmlns="http://www.w3.org/2000/svg" viewBox="0 0 108.52 109.46"><defs><style>.cls-1{isolation:isolate;}.cls-2{opacity:0.2;}.cls-11,.cls-13,.cls-15,.cls-17,.cls-19,.cls-21,.cls-22,.cls-3,.cls-5,.cls-7,.cls-9{fill:#87868a;}.cls-3{opacity:0.1;}.cls-4{opacity:0.28;}.cls-5{opacity:0.19;}.cls-6{opacity:0.36;}.cls-7{opacity:0.28;}.cls-8{opacity:0.44;}.cls-9{opacity:0.37;}.cls-10{opacity:0.52;}.cls-11{opacity:0.46;}.cls-12{opacity:0.6;}.cls-13{opacity:0.55;}.cls-14{opacity:0.68;}.cls-15{opacity:0.64;}.cls-16{opacity:0.76;}.cls-17{opacity:0.73;}.cls-18{opacity:0.84;}.cls-19{opacity:0.82;}.cls-20{opacity:0.92;}.cls-21{opacity:0.91;}.cls-23{fill:#ffd530;}.cls-24{mix-blend-mode:multiply;}.cls-25{fill:#e2e4e7;}</style></defs><g class="cls-1"><g id="Capa_1" data-name="Capa 1"><g class="cls-2"><circle class="cls-3" cx="58.03" cy="58.98" r="50.49"/></g><g class="cls-4"><circle class="cls-5" cx="57.32" cy="58.2" r="50.49"/></g><g class="cls-6"><circle class="cls-7" cx="56.61" cy="57.43" r="50.49"/></g><g class="cls-8"><circle class="cls-9" cx="55.9" cy="56.66" r="50.49"/></g><g class="cls-10"><circle class="cls-11" cx="55.19" cy="55.89" r="50.49"/></g><g class="cls-12"><circle class="cls-13" cx="54.48" cy="55.11" r="50.49"/></g><g class="cls-14"><circle class="cls-15" cx="53.77" cy="54.34" r="50.49"/></g><g class="cls-16"><circle class="cls-17" cx="53.06" cy="53.57" r="50.49"/></g><g class="cls-18"><circle class="cls-19" cx="52.35" cy="52.8" r="50.49"/></g><g class="cls-20"><circle class="cls-21" cx="51.64" cy="52.02" r="50.49"/></g><circle class="cls-22" cx="50.93" cy="51.25" r="50.49"/><circle class="cls-23" cx="50.49" cy="50.49" r="50.49"/><ellipse cx="50.49" cy="71.69" rx="14.87" ry="20.74"/><ellipse cx="27.11" cy="38.72" rx="10.37" ry="7.15" transform="translate(-15.38 60.05) rotate(-82.45)"/><path d="M20.59,18.07A2,2,0,0,1,19,14.72a12.33,12.33,0,0,1,15.28-3.13,2.06,2.06,0,1,1-1.91,3.64,8,8,0,0,0-3.82-.94,8.17,8.17,0,0,0-6.37,3A2.06,2.06,0,0,1,20.59,18.07Z" transform="translate(-0.54 -0.47)"/><ellipse cx="74.94" cy="38.72" rx="7.15" ry="10.37" transform="translate(-4.98 9.71) rotate(-7.55)"/><path d="M81.47,18.07a2.09,2.09,0,0,0,1.3-.46,2.06,2.06,0,0,0,.29-2.89,12.29,12.29,0,0,0-9.56-4.54,12.42,12.42,0,0,0-5.73,1.41,2.06,2.06,0,0,0,1.91,3.64,8.06,8.06,0,0,1,3.82-.94,8.17,8.17,0,0,1,6.37,3A2.08,2.08,0,0,0,81.47,18.07Z" transform="translate(-0.54 -0.47)"/><g class="cls-24"><path class="cls-25" d="M51,.47l-.71,0V101.42l.71,0a50.49,50.49,0,0,0,0-101Z" transform="translate(-0.54 -0.47)"/></g></g></g></svg>