<svg xmlns="http://www.w3.org/2000/svg" viewBox="0 0 108.43 108.91"><defs><style>.cls-1{isolation:isolate;}.cls-2{opacity:0.2;}.cls-11,.cls-13,.cls-15,.cls-17,.cls-19,.cls-21,.cls-22,.cls-3,.cls-5,.cls-7,.cls-9{fill:#87868a;}.cls-3{opacity:0.1;}.cls-4{opacity:0.28;}.cls-5{opacity:0.19;}.cls-6{opacity:0.36;}.cls-7{opacity:0.28;}.cls-8{opacity:0.44;}.cls-9{opacity:0.37;}.cls-10{opacity:0.52;}.cls-11{opacity:0.46;}.cls-12{opacity:0.6;}.cls-13{opacity:0.55;}.cls-14{opacity:0.68;}.cls-15{opacity:0.64;}.cls-16{opacity:0.76;}.cls-17{opacity:0.73;}.cls-18{opacity:0.84;}.cls-19{opacity:0.82;}.cls-20{opacity:0.92;}.cls-21{opacity:0.91;}.cls-23{fill:#fe3957;}.cls-24{fill:#cdced3;mix-blend-mode:multiply;}.cls-25{fill:#fff;}</style></defs><g class="cls-1"><g id="Capa_1" data-name="Capa 1"><g class="cls-2"><circle class="cls-3" cx="57.94" cy="58.42" r="50.49"/></g><g class="cls-4"><circle class="cls-5" cx="57.23" cy="57.65" r="50.49"/></g><g class="cls-6"><circle class="cls-7" cx="56.52" cy="56.88" r="50.49"/></g><g class="cls-8"><circle class="cls-9" cx="55.81" cy="56.1" r="50.49"/></g><g class="cls-10"><circle class="cls-11" cx="55.1" cy="55.33" r="50.49"/></g><g class="cls-12"><circle class="cls-13" cx="54.39" cy="54.56" r="50.49"/></g><g class="cls-14"><circle class="cls-15" cx="53.68" cy="53.79" r="50.49"/></g><g class="cls-16"><circle class="cls-17" cx="52.97" cy="53.01" r="50.49"/></g><g class="cls-18"><circle class="cls-19" cx="52.26" cy="52.24" r="50.49"/></g><g class="cls-20"><circle class="cls-21" cx="51.55" cy="51.47" r="50.49"/></g><circle class="cls-22" cx="50.84" cy="50.69" r="50.49"/><circle class="cls-23" cx="50.49" cy="50.49" r="50.49"/><path class="cls-24" d="M51.07-.25h-.7V100.7l.7,0a50.49,50.49,0,1,0,0-101Z" transform="translate(-0.59 0.25)"/><path class="cls-25" d="M81.16,43.36a17.84,17.84,0,0,0-5.08-10.5h0a14.43,14.43,0,0,0-20.88,0l-4.13,4.26L47,32.86a14.44,14.44,0,0,0-20.89,0h0A17.84,17.84,0,0,0,21,43.36C19.84,53,25,65.76,51.07,80.29h0C77.19,65.76,82.31,53,81.16,43.36Z" transform="translate(-0.59 0.25)"/></g></g></svg>