<svg xmlns="http://www.w3.org/2000/svg" xmlns:xlink="http://www.w3.org/1999/xlink" viewBox="0 0 108.08 108.7"><defs><style>.cls-1{isolation:isolate;}.cls-2{opacity:0.2;}.cls-11,.cls-13,.cls-15,.cls-17,.cls-19,.cls-21,.cls-22,.cls-3,.cls-5,.cls-7,.cls-9{fill:#87868a;}.cls-3{opacity:0.1;}.cls-4{opacity:0.28;}.cls-5{opacity:0.19;}.cls-6{opacity:0.36;}.cls-7{opacity:0.28;}.cls-8{opacity:0.44;}.cls-9{opacity:0.37;}.cls-10{opacity:0.52;}.cls-11{opacity:0.46;}.cls-12{opacity:0.6;}.cls-13{opacity:0.55;}.cls-14{opacity:0.68;}.cls-15{opacity:0.64;}.cls-16{opacity:0.76;}.cls-17{opacity:0.73;}.cls-18{opacity:0.84;}.cls-19{opacity:0.82;}.cls-20{opacity:0.92;}.cls-21{opacity:0.91;}.cls-23{fill:url(#Degradado_sin_nombre_9);}.cls-24{mix-blend-mode:multiply;}.cls-25{fill:#e2e4e7;}</style><linearGradient id="Degradado_sin_nombre_9" x1="50.77" y1="101" x2="50.77" y2="0.03" gradientUnits="userSpaceOnUse"><stop offset="0.05" stop-color="#ffd530"/><stop offset="1" stop-color="#fe5140"/></linearGradient></defs><g class="cls-1"><g id="Capa_1" data-name="Capa 1"><g class="cls-2"><circle class="cls-3" cx="57.59" cy="58.21" r="50.49"/></g><g class="cls-4"><circle class="cls-5" cx="56.88" cy="57.44" r="50.49"/></g><g class="cls-6"><circle class="cls-7" cx="56.17" cy="56.67" r="50.49"/></g><g class="cls-8"><circle class="cls-9" cx="55.46" cy="55.89" r="50.49"/></g><g class="cls-10"><circle class="cls-11" cx="54.75" cy="55.12" r="50.49"/></g><g class="cls-12"><circle class="cls-13" cx="54.04" cy="54.35" r="50.49"/></g><g class="cls-14"><circle class="cls-15" cx="53.33" cy="53.58" r="50.49"/></g><g class="cls-16"><circle class="cls-17" cx="52.62" cy="52.8" r="50.49"/></g><g class="cls-18"><circle class="cls-19" cx="51.91" cy="52.03" r="50.49"/></g><g class="cls-20"><circle class="cls-21" cx="51.2" cy="51.26" r="50.49"/></g><circle class="cls-22" cx="50.49" cy="50.49" r="50.49"/><circle class="cls-23" cx="50.77" cy="50.51" r="50.49"/><g class="cls-24"><path class="cls-25" d="M51.53-.12l-.7,0V100.83l.7,0a50.49,50.49,0,1,0,0-101Z" transform="translate(-0.76 0.15)"/></g><path d="M35.83,80.66a53.64,53.64,0,0,1,7.85-1.26c2.62-.23,5.24-.34,7.86-.35s5.23.09,7.85.33a49.76,49.76,0,0,1,7.85,1.28,1.51,1.51,0,0,1,0,2.93,47.56,47.56,0,0,1-7.85,1.28q-3.93.36-7.85.34c-2.62,0-5.24-.12-7.86-.36a52.33,52.33,0,0,1-7.85-1.26,1.51,1.51,0,0,1,0-2.93Z" transform="translate(-0.76 0.15)"/><circle cx="27.88" cy="64.22" r="4.7"/><path d="M42.2,63.08c-18.33,0-30.32-6.84-30.84-7.14A2.64,2.64,0,0,1,14,51.37c.2.11,12.32,6.94,30.3,6.4a2.64,2.64,0,1,1,.16,5.28Z" transform="translate(-0.76 0.15)"/><circle cx="73.67" cy="64.22" r="4.7"/><path d="M60.87,63.08l-2.28,0a2.64,2.64,0,1,1,.17-5.28c18,.55,30.17-6.33,30.29-6.4a2.64,2.64,0,0,1,2.65,4.57C91.18,56.24,79.2,63.08,60.87,63.08Z" transform="translate(-0.76 0.15)"/></g></g></svg>