<svg xmlns="http://www.w3.org/2000/svg" viewBox="0 0 108.76 108.7"><defs><style>.cls-1{isolation:isolate;}.cls-2{opacity:0.2;}.cls-11,.cls-13,.cls-15,.cls-17,.cls-19,.cls-21,.cls-22,.cls-3,.cls-5,.cls-7,.cls-9{fill:#87868a;}.cls-3{opacity:0.1;}.cls-4{opacity:0.28;}.cls-5{opacity:0.19;}.cls-6{opacity:0.36;}.cls-7{opacity:0.28;}.cls-8{opacity:0.44;}.cls-9{opacity:0.37;}.cls-10{opacity:0.52;}.cls-11{opacity:0.46;}.cls-12{opacity:0.6;}.cls-13{opacity:0.55;}.cls-14{opacity:0.68;}.cls-15{opacity:0.64;}.cls-16{opacity:0.76;}.cls-17{opacity:0.73;}.cls-18{opacity:0.84;}.cls-19{opacity:0.82;}.cls-20{opacity:0.92;}.cls-21{opacity:0.91;}.cls-23{fill:#4678fd;}.cls-24{mix-blend-mode:multiply;}.cls-25{fill:#e2e4e7;}.cls-26{fill:#fff;}</style></defs><g class="cls-1"><g id="Capa_1" data-name="Capa 1"><g class="cls-2"><circle class="cls-3" cx="58.27" cy="58.21" r="50.49"/></g><g class="cls-4"><circle class="cls-5" cx="57.56" cy="57.44" r="50.49"/></g><g class="cls-6"><circle class="cls-7" cx="56.85" cy="56.67" r="50.49"/></g><g class="cls-8"><circle class="cls-9" cx="56.14" cy="55.89" r="50.49"/></g><g class="cls-10"><circle class="cls-11" cx="55.43" cy="55.12" r="50.49"/></g><g class="cls-12"><circle class="cls-13" cx="54.72" cy="54.35" r="50.49"/></g><g class="cls-14"><circle class="cls-15" cx="54.01" cy="53.58" r="50.49"/></g><g class="cls-16"><circle class="cls-17" cx="53.3" cy="52.8" r="50.49"/></g><g class="cls-18"><circle class="cls-19" cx="52.59" cy="52.03" r="50.49"/></g><g class="cls-20"><circle class="cls-21" cx="51.88" cy="51.26" r="50.49"/></g><circle class="cls-22" cx="51.17" cy="50.49" r="50.49"/><circle class="cls-23" cx="50.49" cy="50.49" r="50.49"/><g class="cls-24"><path class="cls-25" d="M50.79-.42l-.7,0V100.54l.7,0a50.49,50.49,0,0,0,0-101Z" transform="translate(-0.31 0.42)"/></g><rect class="cls-26" x="23.64" y="47.76" width="15.26" height="30.38" rx="4.5"/><path class="cls-26" d="M78,55.31a4.12,4.12,0,0,0-3.33-4.45,4.49,4.49,0,0,0,3.14-5.72,4.44,4.44,0,0,0-4.27-3.08H59.24L62,32.55a18.4,18.4,0,0,0,.7-5V26.24a5.4,5.4,0,0,0-5.56-5.39,3.17,3.17,0,0,0-3,3.19v3.41a7.68,7.68,0,0,1-1.55,4.63L44.38,42.66a9.34,9.34,0,0,0-1.93,5.68V71.12a2.64,2.64,0,0,0,2.64,2.64l27.33,0a3.33,3.33,0,0,0,3.33-3.34V70a3.32,3.32,0,0,0-2.3-3.17,3.93,3.93,0,0,0,.13-7.8h.2A4.2,4.2,0,0,0,78,55.31Z" transform="translate(-0.31 0.42)"/></g></g></svg>