<svg xmlns="http://www.w3.org/2000/svg" xmlns:xlink="http://www.w3.org/1999/xlink" viewBox="0 0 108.39 108.91"><defs><style>.cls-1{fill:none;}.cls-2{isolation:isolate;}.cls-3{opacity:0.2;}.cls-10,.cls-12,.cls-14,.cls-16,.cls-18,.cls-20,.cls-22,.cls-23,.cls-4,.cls-6,.cls-8{fill:#87868a;}.cls-4{opacity:0.1;}.cls-5{opacity:0.28;}.cls-6{opacity:0.19;}.cls-7{opacity:0.36;}.cls-8{opacity:0.28;}.cls-9{opacity:0.44;}.cls-10{opacity:0.37;}.cls-11{opacity:0.52;}.cls-12{opacity:0.46;}.cls-13{opacity:0.6;}.cls-14{opacity:0.55;}.cls-15{opacity:0.68;}.cls-16{opacity:0.64;}.cls-17{opacity:0.76;}.cls-18{opacity:0.73;}.cls-19{opacity:0.84;}.cls-20{opacity:0.82;}.cls-21{opacity:0.92;}.cls-22{opacity:0.91;}.cls-24{fill:#ffd530;}.cls-25{mix-blend-mode:multiply;}.cls-26{fill:#e2e4e7;}.cls-27{clip-path:url(#clip-path);}.cls-28{fill:#fe3957;}</style><clipPath id="clip-path" transform="translate(-0.6 0.25)"><path class="cls-1" d="M17.07,53.91a34,34,0,0,0,68,0Z"/></clipPath></defs><g class="cls-2"><g id="Capa_1" data-name="Capa 1"><g class="cls-3"><circle class="cls-4" cx="57.9" cy="58.42" r="50.49"/></g><g class="cls-5"><circle class="cls-6" cx="57.19" cy="57.65" r="50.49"/></g><g class="cls-7"><circle class="cls-8" cx="56.48" cy="56.88" r="50.49"/></g><g class="cls-9"><circle class="cls-10" cx="55.77" cy="56.1" r="50.49"/></g><g class="cls-11"><circle class="cls-12" cx="55.06" cy="55.33" r="50.49"/></g><g class="cls-13"><circle class="cls-14" cx="54.35" cy="54.56" r="50.49"/></g><g class="cls-15"><circle class="cls-16" cx="53.64" cy="53.79" r="50.49"/></g><g class="cls-17"><circle class="cls-18" cx="52.93" cy="53.01" r="50.49"/></g><g class="cls-19"><circle class="cls-20" cx="52.22" cy="52.24" r="50.49"/></g><g class="cls-21"><circle class="cls-22" cx="51.51" cy="51.47" r="50.49"/></g><circle class="cls-23" cx="50.8" cy="50.69" r="50.49"/><circle class="cls-24" cx="50.49" cy="50.49" r="50.49"/><g class="cls-25"><path class="cls-26" d="M51.09-.25h-.71V100.7l.71,0a50.49,50.49,0,1,0,0-101Z" transform="translate(-0.6 0.25)"/></g><path d="M20.32,44.17a2.64,2.64,0,0,1-1.24-5l8.42-4.47L19,30.42a2.64,2.64,0,0,1,2.4-4.71l13,6.62a2.64,2.64,0,0,1,0,4.69L21.56,43.87A2.64,2.64,0,0,1,20.32,44.17Z" transform="translate(-0.6 0.25)"/><path d="M81.86,44.17a2.64,2.64,0,0,1-1.24-.3L67.71,37a2.65,2.65,0,0,1,0-4.69l13-6.62a2.64,2.64,0,0,1,2.4,4.71l-8.48,4.31L83.1,39.2a2.64,2.64,0,0,1-1.24,5Z" transform="translate(-0.6 0.25)"/><g class="cls-27"><path d="M17.07,53.91a34,34,0,0,0,68,0Z" transform="translate(-0.6 0.25)"/><path class="cls-28" d="M51.09,88.36A37.28,37.28,0,0,0,83.71,69.14a78.05,78.05,0,0,0-65,.44A37.28,37.28,0,0,0,51.09,88.36Z" transform="translate(-0.6 0.25)"/></g></g></g></svg>