<svg xmlns="http://www.w3.org/2000/svg" viewBox="0 0 108.08 108.7"><defs><style>.cls-1{isolation:isolate;}.cls-2{opacity:0.2;}.cls-11,.cls-13,.cls-15,.cls-17,.cls-19,.cls-21,.cls-22,.cls-3,.cls-5,.cls-7,.cls-9{fill:#87868a;}.cls-3{opacity:0.1;}.cls-4{opacity:0.28;}.cls-5{opacity:0.19;}.cls-6{opacity:0.36;}.cls-7{opacity:0.28;}.cls-8{opacity:0.44;}.cls-9{opacity:0.37;}.cls-10{opacity:0.52;}.cls-11{opacity:0.46;}.cls-12{opacity:0.6;}.cls-13{opacity:0.55;}.cls-14{opacity:0.68;}.cls-15{opacity:0.64;}.cls-16{opacity:0.76;}.cls-17{opacity:0.73;}.cls-18{opacity:0.84;}.cls-19{opacity:0.82;}.cls-20{opacity:0.92;}.cls-21{opacity:0.91;}.cls-23{fill:#ffd530;}.cls-24{mix-blend-mode:multiply;}.cls-25{fill:#e2e4e7;}.cls-26{fill:#4678fd;}</style></defs><g class="cls-1"><g id="Capa_1" data-name="Capa 1"><g class="cls-2"><circle class="cls-3" cx="57.59" cy="58.21" r="50.49"/></g><g class="cls-4"><circle class="cls-5" cx="56.88" cy="57.44" r="50.49"/></g><g class="cls-6"><circle class="cls-7" cx="56.17" cy="56.67" r="50.49"/></g><g class="cls-8"><circle class="cls-9" cx="55.46" cy="55.89" r="50.49"/></g><g class="cls-10"><circle class="cls-11" cx="54.75" cy="55.12" r="50.49"/></g><g class="cls-12"><circle class="cls-13" cx="54.04" cy="54.35" r="50.49"/></g><g class="cls-14"><circle class="cls-15" cx="53.33" cy="53.58" r="50.49"/></g><g class="cls-16"><circle class="cls-17" cx="52.62" cy="52.8" r="50.49"/></g><g class="cls-18"><circle class="cls-19" cx="51.91" cy="52.03" r="50.49"/></g><g class="cls-20"><circle class="cls-21" cx="51.2" cy="51.26" r="50.49"/></g><circle class="cls-22" cx="50.49" cy="50.49" r="50.49"/><circle class="cls-23" cx="50.55" cy="50.51" r="50.49"/><path d="M38.66,84.11a2.65,2.65,0,0,1-2.07-4.28A18.88,18.88,0,0,1,66,79.47a2.64,2.64,0,1,1-4.07,3.37,13.59,13.59,0,0,0-21.19.26A2.65,2.65,0,0,1,38.66,84.11Z" transform="translate(-0.76 -0.85)"/><path d="M32,41.07a2,2,0,0,0,.79-1.13,2.06,2.06,0,0,0-1.45-2.52,12.32,12.32,0,0,0-14.25,6.34,2.05,2.05,0,0,0,3.67,1.85,8.08,8.08,0,0,1,2.56-3,8.17,8.17,0,0,1,6.94-1.25A2,2,0,0,0,32,41.07Z" transform="translate(-0.76 -0.85)"/><ellipse cx="27.74" cy="54.44" rx="6.36" ry="6.85"/><path d="M70.61,41.07a2,2,0,0,1-.79-1.13,2.06,2.06,0,0,1,1.45-2.52,12.32,12.32,0,0,1,14.25,6.34,2.05,2.05,0,1,1-3.67,1.85,8.08,8.08,0,0,0-2.56-3,8.17,8.17,0,0,0-6.94-1.25A2,2,0,0,1,70.61,41.07Z" transform="translate(-0.76 -0.85)"/><ellipse cx="73.36" cy="54.44" rx="6.36" ry="6.85"/><g class="cls-24"><path class="cls-25" d="M51.32.88l-.71,0V101.83l.71,0a50.49,50.49,0,0,0,0-101Z" transform="translate(-0.76 -0.85)"/></g><path class="cls-26" d="M79.21,79.46a1.39,1.39,0,0,1,2.51,0L87.38,91a8.05,8.05,0,0,1-1.11,10h0a8,8,0,0,1-11.37,0h0a8,8,0,0,1-1.1-10Z" transform="translate(-0.76 -0.85)"/></g></g></svg>